@startuml elemente

package "S-Core Repo" {
  class Platform {
    + SEooC: bool
    --
    Objectives
    Stakeholder Requirements
    SW-Platform Assumptions of use
    Platform Integration Tests
  }
}

package "Main Feature Repo" {
  class Feature {
    + SEooC: bool
    --
    Feature Requirements
    Feature Architecture
    Feature Integration Tests
    Feature Safety/Security Analysis
    Feature Assumptions of use
  }

  class Component {
    --
    Component Requirements
    Component Architecture
    Component Integration Tests
    Component Safety/Security Analysis
    Component Assumption of use
  }

  class Unit {
    --
    Detailed Design
    Source Code
    Unit Test
  }
}

package "Sub-Feature Repo 1" {
  class SubFeature1 {
    + SEooC: bool
    --
    Feature Requirements
    Feature Architecture
    Feature Integration Tests
    Feature Safety/Security Analysis
    Feature Assumptions of use
  }

  class SubComponent1 {
    --
    Component Requirements
    Component Architecture
    Component Integration Tests
    Component Safety/Security Analysis
    Component Assumption of use
  }

  class SubUnit1 {
    --
    Detailed Design
    Source Code
    Unit Test
  }
}

package "Sub-Feature Repo 2" {
  class SubFeature2 {
    + SEooC: bool
    --
    Feature Requirements
    Feature Architecture
    Feature Integration Tests
    Feature Safety/Security Analysis
    Feature Assumptions of use
  }

  class SubComponent2 {
    --
    Component Requirements
    Component Architecture
    Component Integration Tests
    Component Safety/Security Analysis
    Component Assumption of use
  }

  class SubUnit2 {
    --
    Detailed Design
    Source Code
    Unit Test
  }
}

package "Integration Repo" {
}

' Package Relationships
"Integration Repo" ..> "S-Core Repo" : derives from
"Integration Repo" ..> "Main Feature Repo" : uses
"Main Feature Repo" ..> "Sub-Feature Repo 1" : uses
"Main Feature Repo" ..> "Sub-Feature Repo 2" : uses
"S-Core Repo" -[hidden]d- "Main Feature Repo"

' Main Feature Relationships
Platform "1" *-- "n" Feature
Feature "1" o-- "n" Component
Component "1" o-- "n" Component : contains
Component "1" o-d- "n" Unit

' Sub-Feature 1 Relationships
Feature "1" o-- "n" SubFeature1 : contains
SubFeature1 "1" o-- "n" SubComponent1
SubComponent1 "1" o-- "n" SubComponent1 : contains
SubComponent1 "1" o-d- "n" SubUnit1

' Sub-Feature 2 Relationships
Feature "1" o-- "n" SubFeature2 : contains
SubFeature2 "1" o-- "n" SubComponent2
SubComponent2 "1" o-- "n" SubComponent2 : contains
SubComponent2 "1" o-d- "n" SubUnit2

@enduml
